# xmcd
#
# Track frame offsets: 
#        150
#        21430
#        36117
#        52750
#        68632
#        81815
#        94730
#        113075
#        128992
#        148877
#        159922
#        182237
#        202407
#        220309
#        236284
#
# Disc length: 3494 seconds
#
# Revision: 0
# Processed by: cddbd v1.5.2PL0 Copyright (c) Steve Scherf et al.
# Submitted via: ExactAudioCopy v0.99pb4
#
DISCID=d30da40f
DTITLE=Михаил Звездинский - След любви
DYEAR=1996
DGENRE=
TTITLE0=Дворянский гимн
TTITLE1=За кордоном Россия
TTITLE2=Поручик Голицын
TTITLE3=Кончен бал
TTITLE4=Увяли розы
TTITLE5=Мадам
TTITLE6=Ни тюрьма, ни лишения
TTITLE7=Мальчики-налетчики
TTITLE8=Свободная звезда
TTITLE9=Кошка черная
TTITLE10=Белым снегом
TTITLE11=Сотник смелый
TTITLE12=Белая вьюга
TTITLE13=Талисман
TTITLE14=След любви
EXTD=
EXTT0=
EXTT1=
EXTT2=
EXTT3=
EXTT4=
EXTT5=
EXTT6=
EXTT7=
EXTT8=
EXTT9=
EXTT10=
EXTT11=
EXTT12=
EXTT13=
EXTT14=
PLAYORDER=
